<svg xmlns="http://www.w3.org/2000/svg" width="8.935" height="13" viewBox="0 0 8.935 13">
  <defs>
    <style>
      .cls-1 {
        fill: #fff;
      }
    </style>
  </defs>
  <path id="Icon_awesome-question" data-name="Icon awesome-question" class="cls-1" d="M6.279,0a4.919,4.919,0,0,0-4.37,2.311.61.61,0,0,0,.131.835l1.1.831a.609.609,0,0,0,.844-.105,2.463,2.463,0,0,1,2.1-1.256c.781,0,1.747.5,1.747,1.26,0,.573-.473.867-1.244,1.3-.9.5-2.09,1.132-2.09,2.7v.249a.609.609,0,0,0,.609.609h1.84a.609.609,0,0,0,.609-.609V7.978c0-1.088,3.181-1.134,3.181-4.078C10.735,1.682,8.434,0,6.279,0ZM6.025,9.482a1.759,1.759,0,1,0,1.759,1.759A1.761,1.761,0,0,0,6.025,9.482Z" transform="translate(-1.8)"/>
</svg>
