<svg xmlns="http://www.w3.org/2000/svg" width="25.006" height="25" viewBox="0 0 25.006 25">
  <defs>
    <style>
      .cls-1 {
        fill: #6f7bf7;
      }
    </style>
  </defs>
  <g id="Icon_ionic-ios-pricetags" data-name="Icon ionic-ios-pricetags" transform="translate(-2.25 -2.25)">
    <path id="Path_206" data-name="Path 206" class="cls-1" d="M23.007,2.25H16.4a.775.775,0,0,0-.548.229L2.7,15.676a1.552,1.552,0,0,0,0,2.191l6.233,6.288a1.664,1.664,0,0,0,2.426.117L24.326,11.288a.774.774,0,0,0,.229-.548V3.8A1.548,1.548,0,0,0,23.007,2.25ZM20.441,8.259a1.72,1.72,0,1,1,1.526-1.526A1.72,1.72,0,0,1,20.441,8.259Z"/>
    <path id="Path_207" data-name="Path 207" class="cls-1" d="M28.059,5.646V12a.78.78,0,0,1-.226.548L13.549,27.04l.485.492a1.515,1.515,0,0,0,2.16,0l12.962-13.2a.78.78,0,0,0,.226-.548v-6.6A1.542,1.542,0,0,0,28.059,5.646Z" transform="translate(-2.127 -0.734)"/>
  </g>
</svg>
