<svg xmlns="http://www.w3.org/2000/svg" width="8.25" height="11" viewBox="0 0 8.25 11">
  <defs>
    <style>
      .cls-1 {
        fill: #d40029;
      }
    </style>
  </defs>
  <path id="Icon_awesome-clipboard" data-name="Icon awesome-clipboard" class="cls-1" d="M8.25,2.406V9.969A1.031,1.031,0,0,1,7.219,11H1.031A1.031,1.031,0,0,1,0,9.969V2.406A1.031,1.031,0,0,1,1.031,1.375H2.75a1.375,1.375,0,0,1,2.75,0H7.219A1.031,1.031,0,0,1,8.25,2.406ZM4.125.859a.516.516,0,1,0,.516.516A.516.516,0,0,0,4.125.859M6.188,3.309v-.43a.129.129,0,0,0-.129-.129H2.191a.129.129,0,0,0-.129.129v.43a.129.129,0,0,0,.129.129H6.059A.129.129,0,0,0,6.188,3.309Z"/>
</svg>
